<svg width="126" height="24" viewBox="0 0 126 24" fill="none" xmlns="http://www.w3.org/2000/svg">
<path d="M12 6V0H6L0 6H6V12L12 6Z" fill="#FF6F2C"/>
<path d="M24 6V0H18L12 6H18V12L24 6Z" fill="#FF6F2C"/>
<path d="M24 18V12H18L12 18H18V24L24 18Z" fill="#FF6F2C"/>
<path d="M12 18V12H6L0 18H6V24L12 18Z" fill="#FF6F2C"/>
<path d="M31.387 19V5.7H40.792V7.942H33.895V11.381H40.222V13.623H33.895V19H31.387ZM50.8679 19H48.4359C48.1319 18.62 47.9799 18.1197 47.9799 17.499C47.3213 18.677 46.2699 19.266 44.8259 19.266C43.8886 19.266 43.1223 19 42.5269 18.468C41.9443 17.9233 41.6529 17.2077 41.6529 16.321C41.6529 15.4217 41.9633 14.7187 42.5839 14.212C43.2173 13.6927 44.0279 13.357 45.0159 13.205L47.8469 12.768V12.407C47.8469 11.457 47.2706 10.982 46.1179 10.982C45.5859 10.982 45.1679 11.0833 44.8639 11.286C44.5726 11.4887 44.4269 11.742 44.4269 12.046C44.4269 12.122 44.4396 12.198 44.4649 12.274L42.3179 12.996C42.2039 12.7427 42.1469 12.4767 42.1469 12.198C42.1469 11.4253 42.5079 10.754 43.2299 10.184C43.9519 9.60133 44.9146 9.31 46.1179 9.31C47.4606 9.31 48.4803 9.595 49.1769 10.165C49.8863 10.735 50.2409 11.59 50.2409 12.73V16.663C50.2409 17.613 50.4499 18.392 50.8679 19ZM45.3959 17.328C46.1179 17.328 46.7069 17.0937 47.1629 16.625C47.6189 16.1437 47.8469 15.466 47.8469 14.592V14.421L45.5669 14.801C44.5156 14.9783 43.9899 15.4407 43.9899 16.188C43.9899 16.5553 44.1166 16.8403 44.3699 17.043C44.6233 17.233 44.9653 17.328 45.3959 17.328ZM52.5349 19V5.7H54.9289V19H52.5349ZM64.219 15.295L66.157 16.549C65.245 18.3603 63.7757 19.266 61.749 19.266C60.3303 19.266 59.146 18.81 58.196 17.898C57.2587 16.9733 56.79 15.77 56.79 14.288C56.79 12.8187 57.2713 11.6217 58.234 10.697C59.1967 9.77233 60.3683 9.31 61.749 9.31C62.7877 9.31 63.6807 9.538 64.428 9.994C65.188 10.4373 65.7327 11.0643 66.062 11.875L64.105 13.167C63.611 12.0903 62.8193 11.552 61.73 11.552C61.008 11.552 60.4063 11.8053 59.925 12.312C59.4563 12.806 59.222 13.4647 59.222 14.288C59.222 15.124 59.4563 15.789 59.925 16.283C60.3937 16.777 60.9953 17.024 61.73 17.024C62.338 17.024 62.832 16.8847 63.212 16.606C63.6047 16.3147 63.9403 15.8777 64.219 15.295ZM75.9953 10.64C77.0213 11.514 77.5343 12.73 77.5343 14.288C77.5343 15.846 77.0213 17.0683 75.9953 17.955C74.982 18.829 73.7786 19.266 72.3853 19.266C70.992 19.266 69.7823 18.829 68.7563 17.955C67.743 17.0683 67.2363 15.846 67.2363 14.288C67.2363 12.73 67.743 11.514 68.7563 10.64C69.7823 9.75333 70.992 9.31 72.3853 9.31C73.7786 9.31 74.982 9.75333 75.9953 10.64ZM70.4663 16.283C71.011 16.777 71.6506 17.024 72.3853 17.024C73.12 17.024 73.7533 16.777 74.2853 16.283C74.83 15.7763 75.1023 15.1113 75.1023 14.288C75.1023 13.4647 74.83 12.806 74.2853 12.312C73.7533 11.8053 73.12 11.552 72.3853 11.552C71.6506 11.552 71.011 11.8053 70.4663 12.312C69.9343 12.806 69.6683 13.4647 69.6683 14.288C69.6683 15.1113 69.9343 15.7763 70.4663 16.283ZM88.2941 12.578V19H85.9001V13.566C85.9001 12.2233 85.2604 11.552 83.9811 11.552C83.3477 11.552 82.8221 11.799 82.4041 12.293C81.9987 12.787 81.7961 13.4267 81.7961 14.212V19H79.4021V9.576H81.7961V11.096C82.5687 9.90533 83.6327 9.31 84.9881 9.31C85.9887 9.31 86.7867 9.60767 87.3821 10.203C87.9901 10.7983 88.2941 11.59 88.2941 12.578ZM90.5349 19V5.7H92.9289V19H90.5349ZM103.99 19H101.558C101.254 18.62 101.102 18.1197 101.102 17.499C100.443 18.677 99.392 19.266 97.948 19.266C97.0107 19.266 96.2443 19 95.649 18.468C95.0663 17.9233 94.775 17.2077 94.775 16.321C94.775 15.4217 95.0853 14.7187 95.706 14.212C96.3393 13.6927 97.15 13.357 98.138 13.205L100.969 12.768V12.407C100.969 11.457 100.393 10.982 99.24 10.982C98.708 10.982 98.29 11.0833 97.986 11.286C97.6947 11.4887 97.549 11.742 97.549 12.046C97.549 12.122 97.5617 12.198 97.587 12.274L95.44 12.996C95.326 12.7427 95.269 12.4767 95.269 12.198C95.269 11.4253 95.63 10.754 96.352 10.184C97.074 9.60133 98.0367 9.31 99.24 9.31C100.583 9.31 101.602 9.595 102.299 10.165C103.008 10.735 103.363 11.59 103.363 12.73V16.663C103.363 17.613 103.572 18.392 103.99 19ZM98.518 17.328C99.24 17.328 99.829 17.0937 100.285 16.625C100.741 16.1437 100.969 15.466 100.969 14.592V14.421L98.689 14.801C97.6377 14.9783 97.112 15.4407 97.112 16.188C97.112 16.5553 97.2387 16.8403 97.492 17.043C97.7453 17.233 98.0873 17.328 98.518 17.328ZM105.657 19V5.7H108.051V10.735C108.798 9.785 109.831 9.31 111.148 9.31C112.453 9.31 113.529 9.75967 114.378 10.659C115.227 11.5457 115.651 12.7553 115.651 14.288C115.651 15.808 115.214 17.0177 114.34 17.917C113.466 18.8163 112.389 19.266 111.11 19.266C109.767 19.266 108.748 18.791 108.051 17.841V19H105.657ZM108.64 16.264C109.147 16.7707 109.786 17.024 110.559 17.024C111.332 17.024 111.965 16.7707 112.459 16.264C112.966 15.7447 113.219 15.086 113.219 14.288C113.219 13.49 112.966 12.8377 112.459 12.331C111.965 11.8117 111.332 11.552 110.559 11.552C109.786 11.552 109.147 11.8117 108.64 12.331C108.146 12.8377 107.899 13.49 107.899 14.288C107.899 15.086 108.146 15.7447 108.64 16.264ZM119.495 11.894C119.495 12.4767 120.236 12.92 121.718 13.224C122.82 13.452 123.618 13.8003 124.112 14.269C124.619 14.725 124.872 15.3457 124.872 16.131C124.872 17.043 124.537 17.7967 123.865 18.392C123.194 18.9747 122.288 19.266 121.148 19.266C120.059 19.266 119.153 19 118.431 18.468C117.722 17.936 117.19 17.2583 116.835 16.435L118.754 15.219C118.97 15.8397 119.28 16.3337 119.685 16.701C120.103 17.0683 120.604 17.252 121.186 17.252C121.579 17.252 121.921 17.1633 122.212 16.986C122.516 16.796 122.668 16.5363 122.668 16.207C122.668 15.903 122.51 15.6623 122.193 15.485C121.877 15.295 121.364 15.1303 120.654 14.991C118.463 14.5603 117.367 13.5787 117.367 12.046C117.367 11.1973 117.709 10.5323 118.393 10.051C119.077 9.557 119.907 9.31 120.882 9.31C121.883 9.31 122.681 9.5 123.276 9.88C123.884 10.26 124.385 10.8617 124.777 11.685L123.048 12.711C122.618 11.609 121.908 11.058 120.92 11.058C119.97 11.058 119.495 11.3367 119.495 11.894Z" fill="white"/>
</svg>
