<svg width="220" height="43" viewBox="0 0 220 43" fill="none" xmlns="http://www.w3.org/2000/svg">
<path d="M21.3791 10.75V0H10.6895L0 10.75H10.6895V21.5L21.3791 10.75Z" fill="#FF6F2C"/>
<path d="M42.7582 10.75V0H32.0686L21.3791 10.75H32.0686V21.5L42.7582 10.75Z" fill="#FF6F2C"/>
<path d="M42.7582 32.25V21.5H32.0686L21.3791 32.25H32.0686V43L42.7582 32.25Z" fill="#FF6F2C"/>
<path d="M21.3791 32.25V21.5H10.6895L0 32.25H10.6895V43L21.3791 32.25Z" fill="#FF6F2C"/>
<path d="M53.4477 30.9959V7.16669H70.2035V11.1836H57.9159V17.3451H69.188V21.3621H57.9159V30.9959H53.4477Z" fill="black"/>
<path d="M88.1547 30.9959H83.8219C83.2803 30.315 83.0095 29.4186 83.0095 28.3066C81.836 30.4171 79.963 31.4724 77.3904 31.4724C75.7204 31.4724 74.3551 30.9959 73.2945 30.0427C72.2564 29.0668 71.7374 27.7846 71.7374 26.196C71.7374 24.5847 72.2903 23.3251 73.396 22.4174C74.5244 21.4869 75.9687 20.8855 77.7289 20.6131L82.7726 19.8302V19.1834C82.7726 17.4813 81.7458 16.6303 79.6922 16.6303C78.7444 16.6303 77.9997 16.8118 77.4581 17.1749C76.939 17.538 76.6795 17.9919 76.6795 18.5366C76.6795 18.6728 76.7021 18.8089 76.7472 18.9451L72.9221 20.2387C72.719 19.7848 72.6175 19.3082 72.6175 18.8089C72.6175 17.4246 73.2606 16.2218 74.547 15.2005C75.8333 14.1566 77.5483 13.6346 79.6922 13.6346C82.0843 13.6346 83.9009 14.1452 85.1421 15.1665C86.4058 16.1877 87.0377 17.7196 87.0377 19.7621V26.8087C87.0377 28.5108 87.41 29.9065 88.1547 30.9959ZM78.4059 28.0002C79.6922 28.0002 80.7415 27.5803 81.5539 26.7406C82.3664 25.8783 82.7726 24.6641 82.7726 23.0982V22.7918L78.7105 23.4726C76.8375 23.7904 75.901 24.6187 75.901 25.9577C75.901 26.6158 76.1266 27.1265 76.578 27.4896C77.0293 27.83 77.6386 28.0002 78.4059 28.0002Z" fill="black"/>
<path d="M91.1246 30.9959V7.16669H95.3897V30.9959H91.1246Z" fill="black"/>
<path d="M111.941 24.3577L115.394 26.6045C113.769 29.8498 111.151 31.4724 107.54 31.4724C105.013 31.4724 102.903 30.6554 101.21 29.0214C99.5404 27.3647 98.7054 25.2088 98.7054 22.5535C98.7054 19.921 99.563 17.7763 101.278 16.1196C102.993 14.463 105.081 13.6346 107.54 13.6346C109.391 13.6346 110.982 14.0431 112.313 14.8601C113.667 15.6544 114.638 16.7778 115.224 18.2302L111.738 20.5451C110.858 18.616 109.447 17.6515 107.506 17.6515C106.22 17.6515 105.148 18.1054 104.291 19.0132C103.456 19.8983 103.038 21.0784 103.038 22.5535C103.038 24.0514 103.456 25.2428 104.291 26.1279C105.126 27.013 106.198 27.4555 107.506 27.4555C108.59 27.4555 109.47 27.2059 110.147 26.7066C110.846 26.1846 111.444 25.4017 111.941 24.3577Z" fill="black"/>
<path d="M132.921 16.0175C134.749 17.5834 135.663 19.7621 135.663 22.5535C135.663 25.3449 134.749 27.535 132.921 29.1236C131.116 30.6895 128.972 31.4724 126.49 31.4724C124.007 31.4724 121.852 30.6895 120.024 29.1236C118.219 27.535 117.316 25.3449 117.316 22.5535C117.316 19.7621 118.219 17.5834 120.024 16.0175C121.852 14.4289 124.007 13.6346 126.49 13.6346C128.972 13.6346 131.116 14.4289 132.921 16.0175ZM123.071 26.1279C124.041 27.013 125.181 27.4555 126.49 27.4555C127.799 27.4555 128.927 27.013 129.875 26.1279C130.845 25.2201 131.33 24.0287 131.33 22.5535C131.33 21.0784 130.845 19.8983 129.875 19.0132C128.927 18.1054 127.799 17.6515 126.49 17.6515C125.181 17.6515 124.041 18.1054 123.071 19.0132C122.123 19.8983 121.649 21.0784 121.649 22.5535C121.649 24.0287 122.123 25.2201 123.071 26.1279Z" fill="black"/>
<path d="M154.833 19.4898V30.9959H150.568V21.2599C150.568 18.8543 149.428 17.6515 147.149 17.6515C146.02 17.6515 145.084 18.0941 144.339 18.9791C143.617 19.8642 143.256 21.0103 143.256 22.4174V30.9959H138.991V14.1112H143.256V16.8345C144.633 14.7012 146.528 13.6346 148.943 13.6346C150.726 13.6346 152.147 14.1679 153.208 15.2346C154.291 16.3012 154.833 17.7196 154.833 19.4898Z" fill="black"/>
<path d="M158.825 30.9959V7.16669H163.09V30.9959H158.825Z" fill="black"/>
<path d="M182.796 30.9959H178.464C177.922 30.315 177.651 29.4186 177.651 28.3066C176.478 30.4171 174.605 31.4724 172.032 31.4724C170.362 31.4724 168.997 30.9959 167.936 30.0427C166.898 29.0668 166.379 27.7846 166.379 26.196C166.379 24.5847 166.932 23.3251 168.038 22.4174C169.166 21.4869 170.61 20.8855 172.371 20.6131L177.414 19.8302V19.1834C177.414 17.4813 176.388 16.6303 174.334 16.6303C173.386 16.6303 172.641 16.8118 172.1 17.1749C171.581 17.538 171.321 17.9919 171.321 18.5366C171.321 18.6728 171.344 18.8089 171.389 18.9451L167.564 20.2387C167.361 19.7848 167.259 19.3082 167.259 18.8089C167.259 17.4246 167.902 16.2218 169.189 15.2005C170.475 14.1566 172.19 13.6346 174.334 13.6346C176.726 13.6346 178.543 14.1452 179.784 15.1665C181.048 16.1877 181.679 17.7196 181.679 19.7621V26.8087C181.679 28.5108 182.052 29.9065 182.796 30.9959ZM173.048 28.0002C174.334 28.0002 175.383 27.5803 176.196 26.7406C177.008 25.8783 177.414 24.6641 177.414 23.0982V22.7918L173.352 23.4726C171.479 23.7904 170.543 24.6187 170.543 25.9577C170.543 26.6158 170.768 27.1265 171.22 27.4896C171.671 27.83 172.28 28.0002 173.048 28.0002Z" fill="black"/>
<path d="M185.766 30.9959V7.16669H190.031V16.1877C191.363 14.4856 193.202 13.6346 195.549 13.6346C197.873 13.6346 199.792 14.4403 201.304 16.0516C202.816 17.6402 203.572 19.8075 203.572 22.5535C203.572 25.2769 202.793 27.4442 201.236 29.0555C199.679 30.6668 197.761 31.4724 195.481 31.4724C193.089 31.4724 191.273 30.6214 190.031 28.9193V30.9959H185.766ZM191.081 26.0939C191.983 27.0016 193.123 27.4555 194.5 27.4555C195.876 27.4555 197.005 27.0016 197.885 26.0939C198.787 25.1634 199.239 23.9833 199.239 22.5535C199.239 21.1238 198.787 19.955 197.885 19.0472C197.005 18.1168 195.876 17.6515 194.5 17.6515C193.123 17.6515 191.983 18.1168 191.081 19.0472C190.201 19.955 189.761 21.1238 189.761 22.5535C189.761 23.9833 190.201 25.1634 191.081 26.0939Z" fill="black"/>
<path d="M210.42 18.2643C210.42 19.3082 211.741 20.1025 214.381 20.6472C216.344 21.0557 217.766 21.6798 218.646 22.5195C219.549 23.3365 220 24.4485 220 25.8556C220 27.4896 219.402 28.8399 218.206 29.9065C217.01 30.9505 215.396 31.4724 213.365 31.4724C211.425 31.4724 209.811 30.9959 208.525 30.0427C207.261 29.0895 206.313 27.8754 205.681 26.4002L209.1 24.2216C209.484 25.3336 210.037 26.2187 210.759 26.8768C211.504 27.535 212.395 27.864 213.433 27.864C214.133 27.864 214.742 27.7052 215.261 27.3874C215.803 27.047 216.073 26.5818 216.073 25.9917C216.073 25.4471 215.791 25.0159 215.227 24.6981C214.663 24.3577 213.749 24.0627 212.485 23.8131C208.581 23.0415 206.629 21.2826 206.629 18.5366C206.629 17.0161 207.238 15.8246 208.457 14.9622C209.676 14.0771 211.154 13.6346 212.891 13.6346C214.674 13.6346 216.096 13.975 217.157 14.6559C218.24 15.3367 219.131 16.4147 219.831 17.8898L216.75 19.7281C215.983 17.7536 214.719 16.7664 212.959 16.7664C211.267 16.7664 210.42 17.2657 210.42 18.2643Z" fill="black"/>
</svg>
