<svg width="1309" height="249" viewBox="0 0 1309 249" fill="none" xmlns="http://www.w3.org/2000/svg">
<path d="M127.206 62.25V0H63.6028L0 62.25H63.6028V124.5L127.206 62.25Z" fill="#FF6F2C"/>
<path d="M254.411 62.25V0H190.808L127.206 62.25H190.808V124.5L254.411 62.25Z" fill="#FF6F2C"/>
<path d="M254.411 186.75V124.5H190.808L127.206 186.75H190.808V249L254.411 186.75Z" fill="#FF6F2C"/>
<path d="M127.206 186.75V124.5H63.6028L0 186.75H63.6028V249L127.206 186.75Z" fill="#FF6F2C"/>
<path d="M318.014 179.487V41.5H417.711V64.7607H344.6V100.44H411.669V123.701H344.6V179.487H318.014Z" fill="black"/>
<path d="M524.521 179.487H498.74C495.518 175.545 493.907 170.354 493.907 163.915C486.924 176.136 475.78 182.247 460.473 182.247C450.537 182.247 442.413 179.487 436.102 173.968C429.926 168.317 426.837 160.892 426.837 151.693C426.837 142.362 430.127 135.069 436.706 129.812C443.42 124.424 452.014 120.941 462.487 119.364L492.497 114.83V111.085C492.497 101.229 486.387 96.3007 474.169 96.3007C468.529 96.3007 464.098 97.352 460.876 99.4547C457.787 101.557 456.243 104.186 456.243 107.34C456.243 108.128 456.377 108.917 456.646 109.705L433.887 117.196C432.678 114.568 432.074 111.808 432.074 108.917C432.074 100.9 435.901 93.9352 443.554 88.0215C451.208 81.9763 461.413 78.9537 474.169 78.9537C488.401 78.9537 499.21 81.9106 506.595 87.8243C514.115 93.7381 517.874 102.609 517.874 114.436V155.241C517.874 165.097 520.09 173.179 524.521 179.487ZM466.515 162.14C474.169 162.14 480.412 159.709 485.246 154.847C490.08 149.853 492.497 142.822 492.497 133.754V131.98L468.328 135.923C457.183 137.763 451.611 142.559 451.611 150.313C451.611 154.124 452.953 157.081 455.639 159.184C458.324 161.155 461.95 162.14 466.515 162.14Z" fill="black"/>
<path d="M542.191 179.487V41.5H567.569V179.487H542.191Z" fill="black"/>
<path d="M666.048 141.048L686.592 154.058C676.924 172.851 661.349 182.247 639.865 182.247C624.826 182.247 612.272 177.516 602.202 168.054C592.265 158.461 587.297 145.976 587.297 130.6C587.297 115.356 592.4 102.937 602.604 93.3438C612.809 83.7504 625.229 78.9537 639.865 78.9537C650.875 78.9537 660.342 81.3192 668.264 86.0502C676.32 90.6498 682.094 97.1549 685.585 105.566L664.84 118.97C659.603 107.8 651.211 102.214 639.664 102.214C632.01 102.214 625.632 104.843 620.53 110.099C615.562 115.225 613.078 122.058 613.078 130.6C613.078 139.274 615.562 146.173 620.53 151.299C625.498 156.424 631.876 158.986 639.664 158.986C646.109 158.986 651.345 157.541 655.373 154.65C659.536 151.627 663.094 147.093 666.048 141.048Z" fill="black"/>
<path d="M790.882 92.7525C801.758 101.82 807.196 114.436 807.196 130.6C807.196 146.765 801.758 159.446 790.882 168.646C780.14 177.713 767.385 182.247 752.615 182.247C737.845 182.247 725.022 177.713 714.145 168.646C703.404 159.446 698.033 146.765 698.033 130.6C698.033 114.436 703.404 101.82 714.145 92.7525C725.022 83.5533 737.845 78.9537 752.615 78.9537C767.385 78.9537 780.14 83.5533 790.882 92.7525ZM732.272 151.299C738.046 156.424 744.827 158.986 752.615 158.986C760.402 158.986 767.116 156.424 772.755 151.299C778.529 146.042 781.416 139.143 781.416 130.6C781.416 122.058 778.529 115.225 772.755 110.099C767.116 104.843 760.402 102.214 752.615 102.214C744.827 102.214 738.046 104.843 732.272 110.099C726.633 115.225 723.813 122.058 723.813 130.6C723.813 139.143 726.633 146.042 732.272 151.299Z" fill="black"/>
<path d="M921.255 112.859V179.487H895.878V123.11C895.878 109.18 889.097 102.214 875.535 102.214C868.822 102.214 863.249 104.777 858.818 109.902C854.522 115.028 852.373 121.664 852.373 129.812V179.487H826.996V81.7135H852.373V97.4835C860.564 85.1303 871.843 78.9537 886.21 78.9537C896.817 78.9537 905.277 82.042 911.587 88.2186C918.032 94.3952 921.255 102.609 921.255 112.859Z" fill="black"/>
<path d="M945.009 179.487V41.5H970.386V179.487H945.009Z" fill="black"/>
<path d="M1087.64 179.487H1061.86C1058.64 175.545 1057.03 170.354 1057.03 163.915C1050.04 176.136 1038.9 182.247 1023.59 182.247C1013.65 182.247 1005.53 179.487 999.221 173.968C993.044 168.317 989.956 160.892 989.956 151.693C989.956 142.362 993.246 135.069 999.825 129.812C1006.54 124.424 1015.13 120.941 1025.61 119.364L1055.62 114.83V111.085C1055.62 101.229 1049.51 96.3007 1037.29 96.3007C1031.65 96.3007 1027.22 97.352 1023.99 99.4547C1020.91 101.557 1019.36 104.186 1019.36 107.34C1019.36 108.128 1019.5 108.917 1019.76 109.705L997.005 117.196C995.797 114.568 995.192 111.808 995.192 108.917C995.192 100.9 999.019 93.9352 1006.67 88.0215C1014.33 81.9763 1024.53 78.9537 1037.29 78.9537C1051.52 78.9537 1062.33 81.9106 1069.71 87.8243C1077.23 93.7381 1080.99 102.609 1080.99 114.436V155.241C1080.99 165.097 1083.21 173.179 1087.64 179.487ZM1029.63 162.14C1037.29 162.14 1043.53 159.709 1048.36 154.847C1053.2 149.853 1055.62 142.822 1055.62 133.754V131.98L1031.45 135.923C1020.3 137.763 1014.73 142.559 1014.73 150.313C1014.73 154.124 1016.07 157.081 1018.76 159.184C1021.44 161.155 1025.07 162.14 1029.63 162.14Z" fill="black"/>
<path d="M1105.31 179.487V41.5H1130.69V93.7381C1138.61 83.8818 1149.55 78.9537 1163.52 78.9537C1177.35 78.9537 1188.76 83.619 1197.76 92.9496C1206.75 102.149 1211.25 114.699 1211.25 130.6C1211.25 146.37 1206.62 158.921 1197.35 168.251C1188.09 177.582 1176.68 182.247 1163.11 182.247C1148.88 182.247 1138.07 177.319 1130.69 167.463V179.487H1105.31ZM1136.93 151.101C1142.3 156.358 1149.08 158.986 1157.27 158.986C1165.46 158.986 1172.18 156.358 1177.41 151.101C1182.78 145.713 1185.47 138.88 1185.47 130.6C1185.47 122.321 1182.78 115.553 1177.41 110.297C1172.18 104.909 1165.46 102.214 1157.27 102.214C1149.08 102.214 1142.3 104.909 1136.93 110.297C1131.69 115.553 1129.08 122.321 1129.08 130.6C1129.08 138.88 1131.69 145.713 1136.93 151.101Z" fill="black"/>
<path d="M1252 105.763C1252 111.808 1259.86 116.407 1275.57 119.561C1287.25 121.927 1295.71 125.541 1300.94 130.403C1306.31 135.134 1309 141.574 1309 149.722C1309 159.184 1305.44 167.003 1298.33 173.179C1291.21 179.225 1281.61 182.247 1269.52 182.247C1257.98 182.247 1248.38 179.487 1240.72 173.968C1233.2 168.448 1227.56 161.418 1223.8 152.876L1244.15 140.26C1246.43 146.699 1249.72 151.824 1254.02 155.635C1258.45 159.446 1263.75 161.352 1269.93 161.352C1274.09 161.352 1277.71 160.432 1280.8 158.592C1284.03 156.621 1285.64 153.927 1285.64 150.51C1285.64 147.356 1283.96 144.859 1280.6 143.019C1277.24 141.048 1271.81 139.34 1264.29 137.894C1241.06 133.426 1229.44 123.241 1229.44 107.34C1229.44 98.5348 1233.07 91.6354 1240.32 86.6416C1247.57 81.5163 1256.37 78.9537 1266.7 78.9537C1277.31 78.9537 1285.77 80.925 1292.08 84.8675C1298.53 88.81 1303.83 95.0523 1307.99 103.594L1289.66 114.239C1285.1 102.806 1277.58 97.0892 1267.11 97.0892C1257.04 97.0892 1252 99.9804 1252 105.763Z" fill="black"/>
</svg>
