<svg width="124" height="29" viewBox="0 0 124 29" fill="none" xmlns="http://www.w3.org/2000/svg">
<path d="M12 7.25V0H6L0 7.25H6V14.5L12 7.25Z" fill="#FF6F2C"/>
<path d="M24 7.25V0H18L12 7.25H18V14.5L24 7.25Z" fill="#FF6F2C"/>
<path d="M24 21.75V14.5H18L12 21.75H18V29L24 21.75Z" fill="#FF6F2C"/>
<path d="M12 21.75V14.5H6L0 21.75H6V29L12 21.75Z" fill="#FF6F2C"/>
<path d="M30 20.9042V4.83333H39.405V7.54241H32.508V11.6979H38.835V14.407H32.508V20.9042H30Z" fill="black"/>
<path d="M49.4809 20.9042H47.0489C46.7449 20.445 46.5929 19.8404 46.5929 19.0905C45.9343 20.5139 44.8829 21.2256 43.4389 21.2256C42.5016 21.2256 41.7353 20.9042 41.1399 20.2613C40.5573 19.6032 40.2659 18.7384 40.2659 17.667C40.2659 16.5803 40.5763 15.7309 41.1969 15.1187C41.8303 14.4911 42.6409 14.0855 43.6289 13.9019L46.4599 13.3738V12.9376C46.4599 11.7897 45.8836 11.2157 44.7309 11.2157C44.1989 11.2157 43.7809 11.3382 43.4769 11.5831C43.1856 11.828 43.0399 12.1341 43.0399 12.5014C43.0399 12.5932 43.0526 12.6851 43.0779 12.7769L40.9309 13.6493C40.8169 13.3432 40.7599 13.0218 40.7599 12.6851C40.7599 11.7514 41.1209 10.9402 41.8429 10.2515C42.5649 9.54744 43.5276 9.19541 44.7309 9.19541C46.0736 9.19541 47.0933 9.53979 47.7899 10.2285C48.4993 10.9173 48.8539 11.9504 48.8539 13.3279V18.0803C48.8539 19.2282 49.0629 20.1695 49.4809 20.9042ZM44.0089 18.8838C44.7309 18.8838 45.3199 18.6007 45.7759 18.0344C46.2319 17.4528 46.4599 16.6339 46.4599 15.5778V15.3712L44.1799 15.8304C43.1286 16.0446 42.6029 16.6033 42.6029 17.5063C42.6029 17.9502 42.7296 18.2946 42.9829 18.5395C43.2363 18.769 43.5783 18.8838 44.0089 18.8838Z" fill="black"/>
<path d="M51.1479 20.9042V4.83333H53.5419V20.9042H51.1479Z" fill="black"/>
<path d="M62.832 16.4273L64.77 17.9425C63.858 20.1312 62.3887 21.2256 60.362 21.2256C58.9433 21.2256 57.759 20.6746 56.809 19.5726C55.8717 18.4553 55.403 17.0012 55.403 15.2105C55.403 13.4351 55.8843 11.9887 56.847 10.8714C57.8097 9.75406 58.9813 9.19541 60.362 9.19541C61.4007 9.19541 62.2937 9.47091 63.041 10.0219C63.801 10.5576 64.3457 11.3152 64.675 12.2948L62.718 13.856C62.224 12.555 61.4323 11.9045 60.343 11.9045C59.621 11.9045 59.0193 12.2106 58.538 12.8228C58.0693 13.4197 57.835 14.2156 57.835 15.2105C57.835 16.2207 58.0693 17.0242 58.538 17.6211C59.0067 18.218 59.6083 18.5165 60.343 18.5165C60.951 18.5165 61.445 18.3481 61.825 18.0114C62.2177 17.6594 62.5533 17.1313 62.832 16.4273Z" fill="black"/>
<path d="M74.6083 10.8025C75.6343 11.8586 76.1473 13.3279 76.1473 15.2105C76.1473 17.0931 75.6343 18.5701 74.6083 19.6415C73.595 20.6975 72.3916 21.2256 70.9983 21.2256C69.605 21.2256 68.3953 20.6975 67.3693 19.6415C66.356 18.5701 65.8493 17.0931 65.8493 15.2105C65.8493 13.3279 66.356 11.8586 67.3693 10.8025C68.3953 9.73111 69.605 9.19541 70.9983 9.19541C72.3916 9.19541 73.595 9.73111 74.6083 10.8025ZM69.0793 17.6211C69.624 18.218 70.2636 18.5165 70.9983 18.5165C71.733 18.5165 72.3663 18.218 72.8983 17.6211C73.443 17.0089 73.7153 16.2054 73.7153 15.2105C73.7153 14.2156 73.443 13.4197 72.8983 12.8228C72.3663 12.2106 71.733 11.9045 70.9983 11.9045C70.2636 11.9045 69.624 12.2106 69.0793 12.8228C68.5473 13.4197 68.2813 14.2156 68.2813 15.2105C68.2813 16.2054 68.5473 17.0089 69.0793 17.6211Z" fill="black"/>
<path d="M86.9071 13.1442V20.9042H84.5131V14.3381C84.5131 12.7157 83.8734 11.9045 82.5941 11.9045C81.9607 11.9045 81.4351 12.203 81.0171 12.7999C80.6117 13.3968 80.4091 14.1697 80.4091 15.1187V20.9042H78.0151V9.51683H80.4091V11.3535C81.1817 9.91477 82.2457 9.19541 83.6011 9.19541C84.6017 9.19541 85.3997 9.55509 85.9951 10.2745C86.6031 10.9938 86.9071 11.9504 86.9071 13.1442Z" fill="black"/>
<path d="M89.1479 20.9042V4.83333H91.5419V20.9042H89.1479Z" fill="black"/>
<path d="M102.603 20.9042H100.171C99.867 20.445 99.715 19.8404 99.715 19.0905C99.0563 20.5139 98.005 21.2256 96.561 21.2256C95.6237 21.2256 94.8573 20.9042 94.262 20.2613C93.6793 19.6032 93.388 18.7384 93.388 17.667C93.388 16.5803 93.6983 15.7309 94.319 15.1187C94.9523 14.4911 95.763 14.0855 96.751 13.9019L99.582 13.3738V12.9376C99.582 11.7897 99.0057 11.2157 97.853 11.2157C97.321 11.2157 96.903 11.3382 96.599 11.5831C96.3077 11.828 96.162 12.1341 96.162 12.5014C96.162 12.5932 96.1747 12.6851 96.2 12.7769L94.053 13.6493C93.939 13.3432 93.882 13.0218 93.882 12.6851C93.882 11.7514 94.243 10.9402 94.965 10.2515C95.687 9.54744 96.6497 9.19541 97.853 9.19541C99.1957 9.19541 100.215 9.53979 100.912 10.2285C101.621 10.9173 101.976 11.9504 101.976 13.3279V18.0803C101.976 19.2282 102.185 20.1695 102.603 20.9042ZM97.131 18.8838C97.853 18.8838 98.442 18.6007 98.898 18.0344C99.354 17.4528 99.582 16.6339 99.582 15.5778V15.3712L97.302 15.8304C96.2507 16.0446 95.725 16.6033 95.725 17.5063C95.725 17.9502 95.8517 18.2946 96.105 18.5395C96.3583 18.769 96.7003 18.8838 97.131 18.8838Z" fill="black"/>
<path d="M104.27 20.9042V4.83333H106.664V10.9173C107.411 9.76937 108.444 9.19541 109.761 9.19541C111.066 9.19541 112.142 9.73876 112.991 10.8255C113.84 11.8968 114.264 13.3585 114.264 15.2105C114.264 17.0472 113.827 18.5088 112.953 19.5955C112.079 20.6822 111.002 21.2256 109.723 21.2256C108.38 21.2256 107.361 20.6516 106.664 19.5037V20.9042H104.27ZM107.253 17.5982C107.76 18.2104 108.399 18.5165 109.172 18.5165C109.945 18.5165 110.578 18.2104 111.072 17.5982C111.579 16.9706 111.832 16.1747 111.832 15.2105C111.832 14.2462 111.579 13.458 111.072 12.8458C110.578 12.2183 109.945 11.9045 109.172 11.9045C108.399 11.9045 107.76 12.2183 107.253 12.8458C106.759 13.458 106.512 14.2462 106.512 15.2105C106.512 16.1747 106.759 16.9706 107.253 17.5982Z" fill="black"/>
<path d="M118.108 12.3177C118.108 13.0218 118.849 13.5575 120.331 13.9248C121.433 14.2003 122.231 14.6212 122.725 15.1875C123.232 15.7385 123.485 16.4885 123.485 17.4375C123.485 18.5395 123.15 19.4501 122.478 20.1695C121.807 20.8736 120.901 21.2256 119.761 21.2256C118.672 21.2256 117.766 20.9042 117.044 20.2613C116.335 19.6185 115.803 18.7996 115.448 17.8048L117.367 16.3355C117.583 17.0854 117.893 17.6823 118.298 18.1262C118.716 18.5701 119.217 18.792 119.799 18.792C120.192 18.792 120.534 18.6849 120.825 18.4706C121.129 18.241 121.281 17.9272 121.281 17.5293C121.281 17.162 121.123 16.8711 120.806 16.6569C120.49 16.4273 119.977 16.2283 119.267 16.06C117.076 15.5396 115.98 14.3534 115.98 12.5014C115.98 11.4759 116.322 10.6724 117.006 10.0908C117.69 9.49387 118.52 9.19541 119.495 9.19541C120.496 9.19541 121.294 9.42499 121.889 9.88416C122.497 10.3433 122.998 11.0703 123.39 12.0652L121.661 13.305C121.231 11.9734 120.521 11.3076 119.533 11.3076C118.583 11.3076 118.108 11.6443 118.108 12.3177Z" fill="black"/>
</svg>
