<svg width="432" height="87" viewBox="0 0 432 87" fill="none" xmlns="http://www.w3.org/2000/svg">
<path d="M41.9807 21.75V0H20.9904L0 21.75H20.9904V43.5L41.9807 21.75Z" fill="#FF6F2C"/>
<path d="M83.9615 21.75V0H62.9711L41.9807 21.75H62.9711V43.5L83.9615 21.75Z" fill="#FF6F2C"/>
<path d="M83.9615 65.25V43.5H62.9711L41.9807 65.25H62.9711V87L83.9615 65.25Z" fill="#FF6F2C"/>
<path d="M41.9807 65.25V43.5H20.9904L0 65.25H20.9904V87L41.9807 65.25Z" fill="#FF6F2C"/>
<path d="M104.952 62.7125V14.5H137.854V22.6272H113.726V35.0936H135.86V43.2209H113.726V62.7125H104.952Z" fill="black"/>
<path d="M173.104 62.7125H164.596C163.532 61.335 163 59.5213 163 57.2714C160.696 61.5416 157.018 63.6767 151.967 63.6767C148.687 63.6767 146.006 62.7125 143.924 60.784C141.885 58.8096 140.866 56.2153 140.866 53.0011C140.866 49.741 141.952 47.1927 144.123 45.356C146.339 43.4734 149.175 42.2566 152.631 41.7056L162.535 40.1215V38.8129C162.535 35.3691 160.519 33.6472 156.486 33.6472C154.625 33.6472 153.163 34.0146 152.099 34.7492C151.08 35.4839 150.571 36.4022 150.571 37.5042C150.571 37.7797 150.615 38.0552 150.704 38.3307L143.193 40.948C142.794 40.0297 142.594 39.0654 142.594 38.0552C142.594 35.2543 143.857 32.8207 146.383 30.7545C148.909 28.6423 152.277 27.5862 156.486 27.5862C161.184 27.5862 164.751 28.6194 167.188 30.6856C169.67 32.7519 170.91 35.8512 170.91 39.9837V54.2409C170.91 57.6846 171.642 60.5085 173.104 62.7125ZM153.961 56.6515C156.486 56.6515 158.547 55.802 160.142 54.1031C161.738 52.3583 162.535 49.9017 162.535 46.7335V46.1136L154.559 47.4911C150.881 48.1339 149.042 49.8099 149.042 52.519C149.042 53.8506 149.485 54.8837 150.371 55.6184C151.258 56.3071 152.454 56.6515 153.961 56.6515Z" fill="black"/>
<path d="M178.936 62.7125V14.5H187.311V62.7125H178.936Z" fill="black"/>
<path d="M219.811 49.2819L226.591 53.8276C223.4 60.3937 218.26 63.6767 211.17 63.6767C206.207 63.6767 202.064 62.0237 198.74 58.7177C195.461 55.3658 193.822 51.0037 193.822 45.6315C193.822 40.3052 195.505 35.966 198.873 32.6141C202.241 29.2622 206.34 27.5862 211.17 27.5862C214.804 27.5862 217.928 28.4127 220.542 30.0657C223.201 31.6728 225.107 33.9457 226.259 36.8844L219.412 41.5679C217.684 37.6649 214.915 35.7135 211.104 35.7135C208.578 35.7135 206.473 36.6318 204.789 38.4685C203.149 40.2592 202.33 42.6469 202.33 45.6315C202.33 48.662 203.149 51.0726 204.789 52.8634C206.429 54.6541 208.533 55.5495 211.104 55.5495C213.231 55.5495 214.959 55.0444 216.288 54.0342C217.662 52.9782 218.836 51.394 219.811 49.2819Z" fill="black"/>
<path d="M261.009 32.4075C264.599 35.5757 266.393 39.9837 266.393 45.6315C266.393 51.2792 264.599 55.7102 261.009 58.9244C257.464 62.0926 253.254 63.6767 248.38 63.6767C243.506 63.6767 239.274 62.0926 235.684 58.9244C232.139 55.7102 230.367 51.2792 230.367 45.6315C230.367 39.9837 232.139 35.5757 235.684 32.4075C239.274 29.1933 243.506 27.5862 248.38 27.5862C253.254 27.5862 257.464 29.1933 261.009 32.4075ZM241.667 52.8634C243.572 54.6541 245.81 55.5495 248.38 55.5495C250.95 55.5495 253.166 54.6541 255.027 52.8634C256.932 51.0267 257.885 48.6161 257.885 45.6315C257.885 42.6469 256.932 40.2592 255.027 38.4685C253.166 36.6318 250.95 35.7135 248.38 35.7135C245.81 35.7135 243.572 36.6318 241.667 38.4685C239.805 40.2592 238.875 42.6469 238.875 45.6315C238.875 48.6161 239.805 51.0267 241.667 52.8634Z" fill="black"/>
<path d="M304.035 39.4327V62.7125H295.66V43.0142C295.66 38.1471 293.422 35.7135 288.947 35.7135C286.731 35.7135 284.892 36.6089 283.43 38.3996C282.012 40.1904 281.303 42.5092 281.303 45.356V62.7125H272.928V28.5505H281.303V34.0605C284.006 29.7443 287.728 27.5862 292.47 27.5862C295.97 27.5862 298.762 28.6653 300.845 30.8234C302.972 32.9814 304.035 35.8512 304.035 39.4327Z" fill="black"/>
<path d="M311.875 62.7125V14.5H320.25V62.7125H311.875Z" fill="black"/>
<path d="M358.946 62.7125H350.438C349.374 61.335 348.842 59.5213 348.842 57.2714C346.538 61.5416 342.86 63.6767 337.809 63.6767C334.529 63.6767 331.848 62.7125 329.766 60.784C327.727 58.8096 326.708 56.2153 326.708 53.0011C326.708 49.741 327.794 47.1927 329.965 45.356C332.181 43.4734 335.017 42.2566 338.473 41.7056L348.377 40.1215V38.8129C348.377 35.3691 346.361 33.6472 342.328 33.6472C340.467 33.6472 339.005 34.0146 337.941 34.7492C336.922 35.4839 336.413 36.4022 336.413 37.5042C336.413 37.7797 336.457 38.0552 336.546 38.3307L329.035 40.948C328.636 40.0297 328.436 39.0654 328.436 38.0552C328.436 35.2543 329.699 32.8207 332.225 30.7545C334.751 28.6423 338.119 27.5862 342.328 27.5862C347.026 27.5862 350.593 28.6194 353.03 30.6856C355.512 32.7519 356.752 35.8512 356.752 39.9837V54.2409C356.752 57.6846 357.483 60.5085 358.946 62.7125ZM339.803 56.6515C342.328 56.6515 344.389 55.802 345.984 54.1031C347.58 52.3583 348.377 49.9017 348.377 46.7335V46.1136L340.401 47.4911C336.723 48.1339 334.884 49.8099 334.884 52.519C334.884 53.8506 335.327 54.8837 336.213 55.6184C337.1 56.3071 338.296 56.6515 339.803 56.6515Z" fill="black"/>
<path d="M364.777 62.7125V14.5H373.153V32.7519C375.767 29.3081 379.379 27.5862 383.987 27.5862C388.551 27.5862 392.318 29.2163 395.287 32.4764C398.256 35.6905 399.74 40.0756 399.74 45.6315C399.74 51.1415 398.212 55.5265 395.154 58.7866C392.096 62.0467 388.33 63.6767 383.854 63.6767C379.157 63.6767 375.59 61.9549 373.153 58.5111V62.7125H364.777ZM375.213 52.7945C376.986 54.6312 379.224 55.5495 381.927 55.5495C384.63 55.5495 386.845 54.6312 388.574 52.7945C390.346 50.9119 391.232 48.5242 391.232 45.6315C391.232 42.7387 390.346 40.374 388.574 38.5374C386.845 36.6548 384.63 35.7135 381.927 35.7135C379.224 35.7135 376.986 36.6548 375.213 38.5374C373.485 40.374 372.621 42.7387 372.621 45.6315C372.621 48.5242 373.485 50.9119 375.213 52.7945Z" fill="black"/>
<path d="M413.189 36.9532C413.189 39.0654 415.781 40.6725 420.966 41.7745C424.821 42.601 427.613 43.8637 429.341 45.5626C431.114 47.2156 432 49.4655 432 52.3124C432 55.6184 430.826 58.3504 428.477 60.5085C426.129 62.6207 422.96 63.6767 418.972 63.6767C415.161 63.6767 411.993 62.7125 409.467 60.784C406.985 58.8555 405.124 56.3989 403.883 53.4144L410.597 49.0064C411.35 51.2563 412.436 53.047 413.854 54.3786C415.316 55.7102 417.066 56.376 419.105 56.376C420.479 56.376 421.675 56.0546 422.694 55.4117C423.758 54.723 424.29 53.7817 424.29 52.5879C424.29 51.4859 423.736 50.6134 422.628 49.9706C421.52 49.2819 419.725 48.6849 417.244 48.1799C409.578 46.6187 405.745 43.0602 405.745 37.5042C405.745 34.4278 406.941 32.0172 409.334 30.2724C411.727 28.4816 414.629 27.5862 418.041 27.5862C421.542 27.5862 424.334 28.275 426.417 29.6525C428.544 31.03 430.294 33.211 431.668 36.1956L425.619 39.9149C424.112 35.9201 421.631 33.9227 418.174 33.9227C414.851 33.9227 413.189 34.9329 413.189 36.9532Z" fill="black"/>
</svg>
